# xmcd
#
# Track frame offsets:
#	150
#	12746
#	25462
#	39288
#	51404
#	64723
#	77352
#	91827
#	105538
#	119127
#	131511
#	143952
#	154155
#	167763
#	179485
#	197150
#	209919
#	225631
#	240328
#	252061
#	267045
#	281386
#	295624
#	309287
#	323180
#
# Disc length: 4503 seconds
#
# Revision: 2
# Processed by: cddbd v1.5.2PL0 Copyright (c) Steve Scherf et al.
# Submitted via: audiograbber 1.83.01
#
DISCID=62119519
DTITLE=John Lee Hooker - Too Much Boogie [CD1)
DYEAR=2004
DGENRE=Blues
TTITLE0=Boogie Chillen No. 2
TTITLE1=My Baby's Got Something
TTITLE2=Decoration Day Blues
TTITLE3=Roll'n'Roll
TTITLE4=One More Time
TTITLE5=Give Ne Your Phone Number
TTITLE6=Notoriety Woman
TTITLE7=Never Satisfied
TTITLE8=Wandering Blues
TTITLE9=House Rent Boogie
TTITLE10=Mad Man Blues
TTITLE11=Boogie Now
TTITLE12=John L's House Rent Boogie
TTITLE13=Queen Bee
TTITLE14=Prison Bound
TTITLE15=Bumble Bee Blues
TTITLE16=Questionnaire Blues
TTITLE17=Real Gone Gal
TTITLE18=Little Boy Blues
TTITLE19=My Daddy Was A Jockey
TTITLE20=Mean Old Train
TTITLE21=Catfish
TTITLE22=Tease Me Baby
TTITLE23=Louise
TTITLE24=Four Women In My Life
EXTD=recorded between 1950-1953
EXTT0=
EXTT1=
EXTT2=
EXTT3=
EXTT4=
EXTT5=
EXTT6=
EXTT7=
EXTT8=
EXTT9=
EXTT10=
EXTT11=
EXTT12=
EXTT13=
EXTT14=
EXTT15=
EXTT16=
EXTT17=
EXTT18=
EXTT19=
EXTT20=
EXTT21=
EXTT22=
EXTT23=
EXTT24=
PLAYORDER=
